<?xml version="1.0" encoding="UTF-8"?>
<svg id="Layer_1" data-name="Layer 1" xmlns="http://www.w3.org/2000/svg" viewBox="0 0 1920 708.08">
  <defs>
    <style>
      .cls-1 {
        letter-spacing: -.01em;
      }

      .cls-2 {
        letter-spacing: 0em;
      }

      .cls-3 {
        fill: #c79daf;
      }

      .cls-3, .cls-4 {
        stroke-width: 0px;
      }

      .cls-5 {
        font-family: ChakraPetch-Bold, 'Chakra Petch';
        font-size: 125px;
        font-weight: 700;
      }

      .cls-5, .cls-4 {
        fill: #4a3e41;
      }
    </style>
  </defs>
  <g>
    <path class="cls-4" d="M309,480.64h26.8l17.87-17.87-.05-189.16h11.32l.05,193.33-24.12,24.12h-31.87v-10.42Z"/>
    <path class="cls-4" d="M401.88,396.01v-122.41h16.68v117.05l16.38,16.08h31.27l39.31-39.31v-93.82h16.68v148.32h-16.38v-34.55l-34.55,34.55h-43.48l-25.91-25.91Z"/>
    <path class="cls-4" d="M682.74,273.6l.05,190.36-27.1,27.1h-73.57l-22.93-22.93v-18.17h22.04v11.02l10.42,10.42h54.21l14.89-14.59-.05-59.61-27.4,24.72h-54.21l-27.4-27.4v-93.52l27.4-27.4h56.29l25.91,25.91v-25.91h21.44ZM660.7,324.53l-31.27-31.27h-40.8l-14.89,14.59v79.82l14.89,14.59h41.1l30.97-28.89v-48.84Z"/>
    <path class="cls-4" d="M707.75,396.61v-36.63l25.32-25.32h78.03v-25.02l-13.1-12.81h-48.55l-12.81,12.81v11.02h-27.7v-18.17l28.89-28.89h71.78l28.89,28.89v119.43h-25.91v-24.42l-25.61,24.42h-53.91l-25.32-25.32ZM783.11,398.99l28-26.81v-15.49h-65.23l-10.42,10.42v21.74l10.42,10.13h37.23Z"/>
    <path class="cls-4" d="M866.5,214.46h27.7v207.46h-27.7v-207.46Z"/>
    <path class="cls-4" d="M923.69,393.03v-178.57h27.7v85.35l26.51-26.21h53.01l28.29,28.59v91.14l-28.29,28.59h-78.33l-28.89-28.89ZM1017.8,397.8l13.7-13.7v-72.67l-13.7-13.7h-33.95l-32.46,32.46v53.91l13.7,13.7h52.72Z"/>
    <path class="cls-3" d="M1078.26,395.42v-35.14l26.51-26.21h76.54v-22.04l-11.02-11.02h-46.76l-11.02,11.02v9.53h-33.06v-17.27l30.38-30.68h74.16l30.38,30.68v117.64h-30.68v-22.93l-23.83,22.93h-55.1l-26.51-26.51ZM1156.59,395.42l24.72-23.83v-12.51h-60.46l-9.53,9.23v18.17l8.94,8.94h36.34Z"/>
    <path class="cls-4" d="M1393.67,390.95v-86.37l30.68-30.98h58.97l17.57,15.19v-74.33h39.31v207.46h-36.93v-22.93l-22.93,22.93h-55.99l-30.68-30.98ZM1476.77,388.57l24.12-24.72v-38.72l-20.25-18.17h-36.34l-11.32,11.61v58.38l11.32,11.61h32.46Z"/>
    <path class="cls-4" d="M1565.22,273.6h39.31v148.32h-39.31v-148.32Z"/>
    <polygon class="cls-3" points="1560.75 247.23 1560.75 228.17 1574.46 214.46 1595.3 214.46 1609 228.17 1609 247.23 1595.3 260.93 1574.46 260.93 1560.75 247.23"/>
    <rect class="cls-3" x="1237.9" y="273.6" width="33.66" height="148.32"/>
    <polygon class="cls-4" points="1343.34 273.6 1296.28 273.6 1283.99 285.89 1283.99 321.21 1302.53 302.49 1329.34 302.49 1340.95 314.11 1340.95 421.92 1374.61 421.92 1374.61 304.87 1343.34 273.6"/>
  </g>
  <text class="cls-5" transform="translate(1019.5 531.84)"><tspan x="0" y="0">MAN</tspan><tspan class="cls-1" x="268" y="0">A</tspan><tspan class="cls-2" x="346.87" y="0">GER</tspan></text>
</svg>